<svg id="Layer_1" data-name="Layer 1" xmlns="http://www.w3.org/2000/svg" xmlns:xlink="http://www.w3.org/1999/xlink" viewBox="0 0 300.91 403.11" width="406" height="306" class="illustration styles_illustrationTablet__1DWOa"><defs><linearGradient id="linear-gradient" x1="5173.73" y1="274.09" x2="5182.64" y2="274.09" gradientTransform="matrix(-1, 0, 0, 1, 5390.18, -2.62)" gradientUnits="userSpaceOnUse"><stop offset="0" stop-color="#010101" stop-opacity="0"></stop><stop offset="0.95" stop-color="#010101"></stop></linearGradient><linearGradient id="linear-gradient-2" x1="5184.58" y1="234.36" x2="5190.91" y2="230.61" xlink:href="#linear-gradient"></linearGradient><linearGradient id="linear-gradient-3" x1="5165.38" y1="230.34" x2="5170.8" y2="234.99" xlink:href="#linear-gradient"></linearGradient><linearGradient id="linear-gradient-4" x1="5176.95" y1="206.44" x2="5174.43" y2="240.16" xlink:href="#linear-gradient"></linearGradient><linearGradient id="linear-gradient-5" x1="5127.67" y1="252.9" x2="5276.5" y2="421.89" xlink:href="#linear-gradient"></linearGradient><linearGradient id="linear-gradient-6" x1="5177.33" y1="264" x2="5174.81" y2="315.35" xlink:href="#linear-gradient"></linearGradient><linearGradient id="linear-gradient-7" x1="5176.27" y1="265.65" x2="5176.07" y2="302.47" xlink:href="#linear-gradient"></linearGradient><linearGradient id="linear-gradient-8" x1="96.27" y1="271.46" x2="105.18" y2="271.46" gradientTransform="matrix(1, 0, 0, 1, 0, 0)" xlink:href="#linear-gradient"></linearGradient><linearGradient id="linear-gradient-9" x1="107.12" y1="231.73" x2="113.45" y2="227.99" gradientTransform="matrix(1, 0, 0, 1, 0, 0)" xlink:href="#linear-gradient"></linearGradient><linearGradient id="linear-gradient-10" x1="87.92" y1="227.71" x2="93.34" y2="232.37" gradientTransform="matrix(1, 0, 0, 1, 0, 0)" xlink:href="#linear-gradient"></linearGradient><linearGradient id="linear-gradient-11" x1="99.49" y1="203.81" x2="96.97" y2="237.53" gradientTransform="matrix(1, 0, 0, 1, 0, 0)" xlink:href="#linear-gradient"></linearGradient><linearGradient id="linear-gradient-12" x1="50.21" y1="250.28" x2="199.04" y2="419.26" gradientTransform="matrix(1, 0, 0, 1, 0, 0)" xlink:href="#linear-gradient"></linearGradient><linearGradient id="linear-gradient-13" x1="192.81" y1="264" x2="190.29" y2="315.35" gradientTransform="translate(383.87 563.47) rotate(-180)" xlink:href="#linear-gradient"></linearGradient><linearGradient id="linear-gradient-14" x1="98.81" y1="263.03" x2="98.61" y2="299.85" gradientTransform="matrix(1, 0, 0, 1, 0, 0)" xlink:href="#linear-gradient"></linearGradient><linearGradient id="linear-gradient-15" x1="188.95" y1="223.78" x2="196.44" y2="196.13" gradientTransform="matrix(1, 0, 0, 1, 0, 0)" xlink:href="#linear-gradient"></linearGradient><linearGradient id="linear-gradient-16" x1="250.48" y1="169.8" x2="240.14" y2="288.14" gradientTransform="matrix(1, 0, 0, 1, 0, 0)" xlink:href="#linear-gradient"></linearGradient><linearGradient id="linear-gradient-17" x1="246.63" y1="210.72" x2="253.35" y2="136.82" gradientTransform="matrix(1, 0, 0, 1, 0, 0)" xlink:href="#linear-gradient"></linearGradient><linearGradient id="linear-gradient-18" x1="252.3" y1="120.37" x2="232.14" y2="326.56" gradientTransform="matrix(1, 0, 0, 1, 0, 0)" xlink:href="#linear-gradient"></linearGradient><linearGradient id="linear-gradient-19" x1="248.98" y1="244.22" x2="249.11" y2="258.95" gradientTransform="matrix(1, 0, 0, 1, 0, 0)" xlink:href="#linear-gradient"></linearGradient><linearGradient id="linear-gradient-20" x1="193.27" y1="236.97" x2="188.36" y2="290.97" gradientTransform="matrix(1, 0, 0, 1, 0, 0)" xlink:href="#linear-gradient"></linearGradient></defs><title>Japan</title><path d="M321.88,130.26c-2-1.46-4.13-2.84-6.25-4.16A128.17,128.17,0,0,0,141.88,307.17a125.56,125.56,0,0,0,9.39,12.09,131.56,131.56,0,0,0,9.85,10.05,128.17,128.17,0,1,0,160.76-199Zm-53.66,77.61a38,38,0,0,1,1.24-4.21c.3-.78.85-1.9,1.4-2a4.9,4.9,0,0,1,3.14.69c.41.25.55,1.63.25,2.2-1,2-1.1,3.56.77,5.21.47.38.22,2.39-.36,3a58.75,58.75,0,0,1-5.42,4.19l-.8-.42c-.14-.77-.3-1.54-.41-2.31a22.88,22.88,0,0,1-.33-3.36A15.42,15.42,0,0,1,268.22,207.87Zm-59,107.56a3.51,3.51,0,0,1-2.81,1.68,3.68,3.68,0,0,1-2.78-2,6.91,6.91,0,0,1,.69-4.35,10.37,10.37,0,0,1,3.11-3.19,3,3,0,0,1,2.37-.61c.66.22,1,1.27,1.26,1.57A47.54,47.54,0,0,1,209.25,315.43Z" transform="translate(-92.94 -2.62)" fill="#a379c9" opacity="0.4" style="isolation: isolate;"></path><g id="KGfXgP" opacity="0.69" style="isolation: isolate;"><path d="M147.63,332.4c-1.68-1.19-3.11-2.29-4.62-3.28-3.61-2.37-7.26-3.7-11.23-.62a3.9,3.9,0,0,1-4.68.06,27,27,0,0,0-3.43-1.76,4.06,4.06,0,0,1-2.78-4.62c.26-2.32,1.43-3.85,3.82-4,4.09-.33,7.12-2,8.84-5.94a3.77,3.77,0,0,1,2.75-1.66c2.74-.19,4.32-2,5.93-3.75q5.22-5.82,10.4-11.67c1.85-2.09,3.45-4.47,5.55-6.25a51.83,51.83,0,0,1,7.63-5c.59-.35,1.57-.05,2.37-.05,0,2.39.61,3.08,2.73,2.42,4.47-1.38,9.07-1.39,13.62-2,3-.39,5.93-2.45,8.71-4.06,1.61-.94,3-1.57,4.86-.94a17.49,17.49,0,0,0,3.57.56c2.24.28,4.12-.17,5.5-2.23a7.22,7.22,0,0,1,2.71-2.31c2.18-1.07,3.66.05,3.71,2.48a37.3,37.3,0,0,0,.45,3.79l4-1.71c3.38,1.53,3.32,1.48,6.47-1.66a9.68,9.68,0,0,1,3.14-1.73c1.89-.82,2.29-1.9,1.16-3.68a10.74,10.74,0,0,0-1.26-1.59A3.87,3.87,0,0,1,227,266a134.82,134.82,0,0,1,8.35-11.22c3.14-3.63,4.84-11.36,2.93-15.77-2.08-4.77-.15-8.73,4.75-10.37A14.42,14.42,0,0,0,247.1,226c1.35-1.07,2.69-1.86,4.25-.64,1.29,1,1.67,4.23.59,5.44-1.34,1.5-2.94,2.77-4.37,4.21-.42.42-1,1.11-.89,1.59a29.9,29.9,0,0,0,1.39,6.33,4.13,4.13,0,0,0,2.7,2c.59.13,1.73-.84,2.14-1.58,1.72-3.1,4.43-4.34,7.72-5.33,2.54-.77,4.72-2.78,7-4.33,1.62-1.11,3.17-2.33,4.68-3.59a6.88,6.88,0,0,0,1.9-2.17c1.77-3.9,3.21-8,5.17-11.75a15.26,15.26,0,0,1,4.46-5.24c3.65-2.59,6.1-5.76,6.84-10.2a58.68,58.68,0,0,1,1.23-7c.74-2.5,2-4.85,2.92-7.3a37.9,37.9,0,0,0,1.5-4.67,44.69,44.69,0,0,0,1.58-7.41c.33-4.57.78-9.22-1.07-13.62a1.93,1.93,0,0,0-1.8-.53c-1.62.85-3.31,1.44-4.47-.26s0-3.29,1-4.75,1.95-2.81,2.84-4.27c1.69-2.72-.06-6.78-2.47-8.87a7.37,7.37,0,0,1-1.6-1.88c-.76-1.35-.77-2.6,1-3.3,4.94-2,6.69-5.66,5.95-10.83a5.79,5.79,0,0,1,.7-3.65c.62-.94,2.5-2.18,2.95-1.89a13.71,13.71,0,0,1,3.82,3.88c.69,1,.65,2.48,1.21,3.61.95,1.93,2.31,2,4.08.88a11.11,11.11,0,0,1,4-1.71c1.46-.27,2-.87,1.82-2.24-.07-.6-.15-1.21-.24-1.8-.39-2.62-.87-2.86-3.2-1.64-2.76,1.45-5.15-.24-5.31-3.8a6,6,0,0,1,.27-1.77c1.11-4.42,1.26-4.49,5.21-2.53,2.8,1.38,3,1.36,6.74-.79.11.1.29.19.3.29.34,3.67,1.12,7.36.89,11-.36,5.88,3.35,9.54,6.49,13.53,5,6.37,10,12.79,12.34,20.67a14.87,14.87,0,0,1,.19,7.29c-1,4.41-2.18,8.71-5.26,12.51a9.43,9.43,0,0,0-1,10.68A17.54,17.54,0,0,1,334.6,192c.5,1.7-.12,2.25-1.82,1.73a8.92,8.92,0,0,0-2.14-.7c-1,0-2.37-.09-2.92.49-3.93,4.12-6.13,7.76-2.43,13.72a32.63,32.63,0,0,1,4.92,16.06,15.79,15.79,0,0,1-.94,5.72c-1.23,3.48-3.1,6.76-4.14,10.3-1.87,6.35-1.75,12.53,3.21,17.75,3.79,4,3.8,4.24-1,6.84-1.7.92-2.72,2-2.86,3.94a19.54,19.54,0,0,0-.33,3.38c.5,4.88-.88,8.63-5.48,11.13-1.31.71-1.9,2.76-2.81,4.17-3.61-1.48-4.11-2.55-3.22-6.16a15.75,15.75,0,0,0,.72-4.21,11.3,11.3,0,0,1,1.61-6.68,3.07,3.07,0,0,0,0-2.71c-.28-.47-1.63-.57-2.43-.42-3.68.68-4.61,2.92-3.15,6.37a11.18,11.18,0,0,1,.57,5c-.05.67-1.17,1.6-1.95,1.78-.57.14-1.61-.58-2.06-1.2-1.49-2.05-2.28-2.31-4.46-1.05-.59.34-1.18.68-1.76,1-1.78,1.08-2.07,2.58-1.48,4.63a23.94,23.94,0,0,1,1,6.39c0,1.12-.88,2.33-1.59,3.35a25.79,25.79,0,0,1-2.87,3.32,18.53,18.53,0,0,1-2,1.58,7.12,7.12,0,0,1-1.22-2c-.49-2.52-.76-5.08-1.19-7.61-.36-2.09-1.28-2.51-3.12-1.43s-3.38,2.09-3.84,4.78-2.32,5.38-3.91,7.84c-.51.77-2.14,1-3.28,1.13-5.12.32-10.26.37-15.38.76a37.32,37.32,0,0,0-6,1.43c.46-1.38.9-2.67,1.38-4.11a6.39,6.39,0,0,0-2-.44c-2.92.49-4.9-.2-5.79-3.4-.4-1.41-3.84-.54-4.63,1.15a4.88,4.88,0,0,0,1.51,6.23c1.51,1.14,3.12,2.15,4.56,3.36a10.38,10.38,0,0,1,2.13,2.62,2.17,2.17,0,0,1-1.41,3.33c-2.46.72-4.94,1.4-7.41,2.09a4.59,4.59,0,0,0-3.47,3.46c-.77,2.65-1.57,5.35-4.68,6.51-1.5.56-1.66,2.16-1.06,3.52,1.3,3-.53,5-2.39,6.46-2.48,1.91-4.13,2.78-7,1.21a41.8,41.8,0,0,1-11.43-9.35c-.78-.88-.73-2.5-1-3.8,0-.19.16-.42.19-.64.49-3.74.66-7.59,4.39-9.95.59-.38.79-1.44,1.06-2.22.89-2.57.37-2.82-2.31-3-4.8-.3-9.59-1-14.34-1.67a7.06,7.06,0,0,0-6.09,1.54,40.21,40.21,0,0,1-6.48,4.55,13.53,13.53,0,0,1-5.16,1.37c-2.61.23-5,.5-7,2.64-.7.76-2.3.67-3.48,1a21.51,21.51,0,0,0-3.63,1.22c-3,1.5-5.92,3.29-9,4.63-.87.38-2.27-.3-3.38-.65-.62-.19-1.1-.84-1.72-1-3.53-1.14-4.45-.36-4.84,3.46a74,74,0,0,1-1.48,8.19C148.74,331.26,148.17,331.69,147.63,332.4Z" transform="translate(-92.94 -2.62)" fill="#a379c9"></path><path d="M316.26,2.62c5.09,5.28,10.15,10.78,15.5,16a104.27,104.27,0,0,0,12.79,11.1,38.57,38.57,0,0,0,27.51,6.53c2-.26,4.12-3.18,5.29-5.35,1.42-2.67,3.61-4.08,6-5.88.88,2.78-.09,5-1,7.19-.47,1.11-1.09,2.16-1.65,3.23a6.07,6.07,0,0,0-.09,6.07c1.21,2.17,2.35,4.37,3.63,6.5A8,8,0,0,0,392,52a18.08,18.08,0,0,1,1.84.16,41.88,41.88,0,0,1-4.06,4.39c-3.5,2.79-7.19,5.27-11.86,5.68-.41,0-.9.66-1.1,1.11a21.69,21.69,0,0,0-.77,2.65c-1.3,0-2.79.46-3.65-.08-3.27-2-5.88-.57-8.14,1.45-5.05,4.51-9.49,9.58-11,16.44-.52,2.33-.31,4.82-.5,7.23-.1,1.16-.36,2.31-.48,3.11-4.77-1.23-9.29-2.13-13.6-3.61-2-.7-3.74-2.45-5.48-3.86-3.95-3.21-8.1-5.94-13.46-5.56-3.46.25-6.62,1.32-8.87,4.29-1,1.37-2.32,2.55-3.67,4-1.1-1.35-2.06-2.5-3-3.68a5.32,5.32,0,0,0-7.94-.75c-2.06,1.83-2.23,5.64.22,7.39,1.8,1.28,4.28,1.72,6.52,2.24a4.31,4.31,0,0,1,2.94,2.09,9.08,9.08,0,0,0,3.12,2.44,26,26,0,0,0,3.26,1.4c-1.29,4.69-5.18,6-8.48,3.75-2.66-1.84-3.3-1.54-4.12,1.6a14.84,14.84,0,0,0-.74,4.67c.19,2.76-1.88,4.36-4.45,4.28-2.08-.07-4.41-.77-5.23-3.28a4.9,4.9,0,0,1,1.39-5.32,5.25,5.25,0,0,0-.92-8.14c-.94-.63-1.87-1.28-2.82-1.89-5.23-3.33-5-11.91-.05-15.3,1.93-1.32,3.71-2.87,5.53-4.34,2.59-2.09,3.14-5,1.08-7.55-1.19-1.46-1.28-3.16-.42-4.13a6,6,0,0,1,4.18-1.46c3.38.07,6.74.72,10.12.85a4.11,4.11,0,0,0,4-4c0-2.33-.37-4.66-.39-7a4.07,4.07,0,0,1,.8-2.66,9.78,9.78,0,0,0,2-10,4.75,4.75,0,0,1-.11-2.32c.31-2.38.84-4.74,1-7.13a25.77,25.77,0,0,0-.07-7.29,13,13,0,0,0-3-5.22c-2.56-3-2.93-5.56-.88-8.82a5.26,5.26,0,0,0,1.07-2.66C311.7,4.19,313.26,3,316.26,2.62Z" transform="translate(-92.94 -2.62)" fill="#a379c9"></path><path d="M98.46,354.55a24.19,24.19,0,0,1-1.9-1.52,17.51,17.51,0,0,1-3.25-3.61c-1.08-2,.28-3.83,2.7-3.53s4.35.16,4.57-3a1.83,1.83,0,0,1,1.39-1.12,2.62,2.62,0,0,0,3-2.16c.44-1.43,1.4-1.81,3-2.06a6.94,6.94,0,0,0,4.39-2.92c1.72-2.87,3.43-5.19,7.15-5.36,1.36-.06,2.68-.9,4.21-1.46,1,2,2,4,3,5.89a6.87,6.87,0,0,0,8.84,3.33c.35-.13.7-.28,1.06-.39,1.77-.53,3.52-1.13,4.66,1.12,1,2,.57,3.41-1.51,4.91l-1.57,1.21a26.81,26.81,0,0,0,2.64,1.81c1.59.8,4,1,4.72,2.31a17,17,0,0,1,2.39,7.68c.08,1.69-1.18,3.84-2.49,5.12a16.47,16.47,0,0,0-4.6,9.12c-.75,3.77-1.59,7.54-2,11.35-.37,3.26-.15,6.59-.35,9.88a8.08,8.08,0,0,1-1,3.65,2.88,2.88,0,0,1-2.44,1.08c-3-.71-3.59-.74-4.38,2.4-1.16,4.6-4.48,6.24-8.84,7.41,0-2.37-1-4.56,1.13-6.48a2.65,2.65,0,0,0,.26-2.38,10,10,0,0,0-2.26-3.36c-.56-.53-1.69-.44-2.57-.63a8.29,8.29,0,0,0-.3,2.33c.34,2.2.84,4.37,1.29,6.61a11.42,11.42,0,0,1-8.75-1.07c-1.88-1-1.67-3-.77-4.34,2.11-3.1,1.77-5.83-.18-8.78a7.25,7.25,0,0,1-.2-7.79,79.41,79.41,0,0,1,4.86-7c.26-.36.68-.62.89-1,3-5.6,1.29-15.34-3.48-19.59a2.8,2.8,0,0,0-2.3-.71c-.65.27-1.09,1.31-1.38,2.1a12.29,12.29,0,0,0-.06,2c-.23,1.62.4,2.46,2,2.9,1.2.32,2.85.3,2.94,2.24s-.2,3.92-2,5a3.16,3.16,0,0,1-2.86-.32A23.42,23.42,0,0,1,105,361.7c-1,.79-1.93,1.52-2.87,2.21-2.66,2-4.27,1.35-5-1.81a22.07,22.07,0,0,0-1.4-4C95,356.42,95.38,355.83,98.46,354.55Z" transform="translate(-92.94 -2.62)" fill="#a379c9"></path><path d="M152.52,341.44c1.87-2.26,3.85-4.45,5.58-6.81a29.28,29.28,0,0,0,3-5.19c.94-2.1,1.19-4.53,3.48-5.87,1.58-.93,2.93-1,4.23.43,1.49,1.67,3.09,2.88,5.38,1.19a3.43,3.43,0,0,1,1.76-.3c3-.1,3.9-.59,4.12-3.46.18-2.39,1.41-3.67,3.22-4.8,1-.63,1.88-1.51,2.87-2.2a2.56,2.56,0,0,1,1.61-.61c3.27.69,6.51,1.5,9.76,2.3.49.12,1,.7,1.4.61,2.67-.64,2.84,1.44,3.54,3a11.31,11.31,0,0,0,1.52,2.72c1.88,2.24,1.7,5.07-.82,6.58-4.39,2.64-7,6.59-8.76,11.2-1.11,2.81-2.31,3.11-4.31.76s-4.25-3.91-7.32-3.92a6.25,6.25,0,0,0-2.89,1.1c-.94.57-1.62,1.71-2.6,2.05-2,.71-2.74,2.08-3.46,4a27.83,27.83,0,0,1-4.05,6.91c-.9,1.18-1.59,2.07-1.16,3.6a2,2,0,0,1-.44,1.71,44.46,44.46,0,0,1-4.42,2.64c-1.31.72-2.45.42-2.91-1a5.77,5.77,0,0,0-4.21-4.27c-.6-.16-1.17-1.62-1.18-2.49a7.77,7.77,0,0,1,1-3c1.39-3.08.38-5.27-2.89-6.2a5.16,5.16,0,0,1-1-.46,7.4,7.4,0,0,1-.72-.53Z" transform="translate(-92.94 -2.62)" fill="#a379c9"></path><path d="M268.44,216.5c-.14-.77-.3-1.53-.4-2.31a21.14,21.14,0,0,1-.34-3.35,13.83,13.83,0,0,1,.53-3,38.63,38.63,0,0,1,1.23-4.23c.29-.76.84-1.88,1.41-2a5,5,0,0,1,3.12.68c.41.25.56,1.64.26,2.22-1,2-1.09,3.55.78,5.19.44.39.21,2.39-.38,3a50.75,50.75,0,0,1-5.42,4.19Z" transform="translate(-92.94 -2.62)" fill="#a379c9"></path><path d="M211.1,308.5a48.76,48.76,0,0,1-1.85,6.94,3.47,3.47,0,0,1-2.81,1.67,3.7,3.7,0,0,1-2.78-2,6.9,6.9,0,0,1,.68-4.35,10.72,10.72,0,0,1,3.11-3.19,3,3,0,0,1,2.38-.62C210.5,307.16,210.88,308.2,211.1,308.5Z" transform="translate(-92.94 -2.62)" fill="#a379c9"></path></g><g id="KGfXgP-2" data-name="KGfXgP" opacity="0.69" style="isolation: isolate;"><path d="M141.88,307.17a125.56,125.56,0,0,0,9.39,12.09,6.13,6.13,0,0,0-.94,3.27,74.83,74.83,0,0,1-1.49,8.21c-.11.52-.68,1-1.21,1.65-1.68-1.18-3.11-2.29-4.62-3.28-3.61-2.36-7.27-3.69-11.23-.6a3.93,3.93,0,0,1-4.69.05,27.48,27.48,0,0,0-3.41-1.76,4,4,0,0,1-2.78-4.62c.25-2.32,1.43-3.86,3.8-4.05,4.1-.33,7.13-2,8.86-5.92a3.77,3.77,0,0,1,2.73-1.68C138.85,310.34,140.39,308.85,141.88,307.17Z" transform="translate(-92.94 -2.62)" fill="#a379c9"></path><path d="M315.63,126.1a2.08,2.08,0,0,0,.16-1.29c-.05-.61-.14-1.21-.22-1.82-.38-2.62-.88-2.86-3.22-1.62-2.75,1.43-5.15-.25-5.31-3.8a7.83,7.83,0,0,1,.27-1.79c1.13-4.41,1.27-4.49,5.23-2.51,2.78,1.38,3,1.35,6.72-.8.11.09.3.2.3.28.36,3.69,1.13,7.38.91,11a12.17,12.17,0,0,0,1.41,6.5C319.84,128.8,317.75,127.42,315.63,126.1Z" transform="translate(-92.94 -2.62)" fill="#a379c9"></path><path d="M316.26,2.62c5.09,5.28,10.15,10.78,15.5,16a104.27,104.27,0,0,0,12.79,11.1,38.57,38.57,0,0,0,27.51,6.53c2-.26,4.12-3.18,5.29-5.35,1.42-2.67,3.61-4.08,6-5.88.88,2.78-.09,5-1,7.19-.47,1.11-1.09,2.16-1.65,3.23a6.07,6.07,0,0,0-.09,6.07c1.21,2.17,2.35,4.37,3.63,6.5A8,8,0,0,0,392,52a18.08,18.08,0,0,1,1.84.16,41.88,41.88,0,0,1-4.06,4.39c-3.5,2.79-7.19,5.27-11.86,5.68-.41,0-.9.66-1.1,1.11a21.69,21.69,0,0,0-.77,2.65c-1.3,0-2.79.46-3.65-.08-3.27-2-5.88-.57-8.14,1.45-5.05,4.51-9.49,9.58-11,16.44-.52,2.33-.31,4.82-.5,7.23-.1,1.16-.36,2.31-.48,3.11-4.77-1.23-9.29-2.13-13.6-3.61-2-.7-3.74-2.45-5.48-3.86-3.95-3.21-8.1-5.94-13.46-5.56-3.46.25-6.62,1.32-8.87,4.29-1,1.37-2.32,2.55-3.67,4-1.1-1.35-2.06-2.5-3-3.68a5.32,5.32,0,0,0-7.94-.75c-2.06,1.83-2.23,5.64.22,7.39,1.8,1.28,4.28,1.72,6.52,2.24a4.31,4.31,0,0,1,2.94,2.09,9.08,9.08,0,0,0,3.12,2.44,26,26,0,0,0,3.26,1.4c-1.29,4.69-5.18,6-8.48,3.75-2.66-1.84-3.3-1.54-4.12,1.6a14.84,14.84,0,0,0-.74,4.67c.19,2.76-1.88,4.36-4.45,4.28-2.08-.07-4.41-.77-5.23-3.28a4.9,4.9,0,0,1,1.39-5.32,5.25,5.25,0,0,0-.92-8.14c-.94-.63-1.87-1.28-2.82-1.89-5.23-3.33-5-11.91-.05-15.3,1.93-1.32,3.71-2.87,5.53-4.34,2.59-2.09,3.14-5,1.08-7.55-1.19-1.46-1.28-3.16-.42-4.13a6,6,0,0,1,4.18-1.46c3.38.07,6.74.72,10.12.85a4.11,4.11,0,0,0,4-4c0-2.33-.37-4.66-.39-7a4.07,4.07,0,0,1,.8-2.66,9.78,9.78,0,0,0,2-10,4.75,4.75,0,0,1-.11-2.32c.31-2.38.84-4.74,1-7.13a25.77,25.77,0,0,0-.07-7.29,13,13,0,0,0-3-5.22c-2.56-3-2.93-5.56-.88-8.82a5.26,5.26,0,0,0,1.07-2.66C311.7,4.19,313.26,3,316.26,2.62Z" transform="translate(-92.94 -2.62)" fill="#a379c9"></path><path d="M98.46,354.55a24.19,24.19,0,0,1-1.9-1.52,17.51,17.51,0,0,1-3.25-3.61c-1.08-2,.28-3.83,2.7-3.53s4.35.16,4.57-3a1.83,1.83,0,0,1,1.39-1.12,2.62,2.62,0,0,0,3-2.16c.44-1.43,1.4-1.81,3-2.06a6.94,6.94,0,0,0,4.39-2.92c1.72-2.87,3.43-5.19,7.15-5.36,1.36-.06,2.68-.9,4.21-1.46,1,2,2,4,3,5.89a6.87,6.87,0,0,0,8.84,3.33c.35-.13.7-.28,1.06-.39,1.77-.53,3.52-1.13,4.66,1.12,1,2,.57,3.41-1.51,4.91l-1.57,1.21a26.81,26.81,0,0,0,2.64,1.81c1.59.8,4,1,4.72,2.31a17,17,0,0,1,2.39,7.68c.08,1.69-1.18,3.84-2.49,5.12a16.47,16.47,0,0,0-4.6,9.12c-.75,3.77-1.59,7.54-2,11.35-.37,3.26-.15,6.59-.35,9.88a8.08,8.08,0,0,1-1,3.65,2.88,2.88,0,0,1-2.44,1.08c-3-.71-3.59-.74-4.38,2.4-1.16,4.6-4.48,6.24-8.84,7.41,0-2.37-1-4.56,1.13-6.48a2.65,2.65,0,0,0,.26-2.38,10,10,0,0,0-2.26-3.36c-.56-.53-1.69-.44-2.57-.63a8.29,8.29,0,0,0-.3,2.33c.34,2.2.84,4.37,1.29,6.61a11.42,11.42,0,0,1-8.75-1.07c-1.88-1-1.67-3-.77-4.34,2.11-3.1,1.77-5.83-.18-8.78a7.25,7.25,0,0,1-.2-7.79,79.41,79.41,0,0,1,4.86-7c.26-.36.68-.62.89-1,3-5.6,1.29-15.34-3.48-19.59a2.8,2.8,0,0,0-2.3-.71c-.65.27-1.09,1.31-1.38,2.1a12.29,12.29,0,0,0-.06,2c-.23,1.62.4,2.46,2,2.9,1.2.32,2.85.3,2.94,2.24s-.2,3.92-2,5a3.16,3.16,0,0,1-2.86-.32A23.42,23.42,0,0,1,105,361.7c-1,.79-1.93,1.52-2.87,2.21-2.66,2-4.27,1.35-5-1.81a22.07,22.07,0,0,0-1.4-4C95,356.42,95.38,355.83,98.46,354.55Z" transform="translate(-92.94 -2.62)" fill="#a379c9"></path><path d="M175.91,341a6.33,6.33,0,0,0-2.1,3.28,28,28,0,0,1-4.07,6.93c-.88,1.16-1.6,2.07-1.16,3.58a1.89,1.89,0,0,1-.44,1.71,42.33,42.33,0,0,1-4.4,2.64c-1.32.72-2.45.44-2.92-1a5.72,5.72,0,0,0-4.21-4.26c-.61-.17-1.16-1.63-1.19-2.48a7.43,7.43,0,0,1,1-3c1.4-3.09.38-5.29-2.9-6.23a3.81,3.81,0,0,1-1-.46,6.62,6.62,0,0,1-.72-.53,6.61,6.61,0,0,1,.74.28c1.88-2.29,3.83-4.46,5.56-6.83a28.3,28.3,0,0,0,3-5.18.69.69,0,0,0,.05-.13A128.15,128.15,0,0,0,175.91,341Z" transform="translate(-92.94 -2.62)" fill="#a379c9"></path><path d="M274.66,212.74a58.75,58.75,0,0,1-5.42,4.19l-.8-.42c-.14-.77-.3-1.54-.41-2.31a22.88,22.88,0,0,1-.33-3.36,15.42,15.42,0,0,1,.52-3,38,38,0,0,1,1.24-4.21c.3-.78.85-1.9,1.4-2a4.9,4.9,0,0,1,3.14.69c.41.25.55,1.63.25,2.2-1,2-1.1,3.56.77,5.21C275.49,210.15,275.24,212.16,274.66,212.74Z" transform="translate(-92.94 -2.62)" fill="#a379c9"></path><path d="M211.09,308.49a47.54,47.54,0,0,1-1.84,6.94,3.51,3.51,0,0,1-2.81,1.68,3.68,3.68,0,0,1-2.78-2,6.91,6.91,0,0,1,.69-4.35,10.37,10.37,0,0,1,3.11-3.19,3,3,0,0,1,2.37-.61C210.49,307.14,210.87,308.19,211.09,308.49Z" transform="translate(-92.94 -2.62)" fill="#a379c9"></path></g><path d="M211.09,308.49a47.54,47.54,0,0,1-1.84,6.94,3.51,3.51,0,0,1-2.81,1.68,3.68,3.68,0,0,1-2.78-2,6.91,6.91,0,0,1,.69-4.35,10.37,10.37,0,0,1,3.11-3.19,3,3,0,0,1,2.37-.61C210.49,307.14,210.87,308.19,211.09,308.49Z" transform="translate(-92.94 -2.62)" fill="#a379c9" opacity="0.4" style="isolation: isolate;"></path><path d="M274.66,212.74a58.75,58.75,0,0,1-5.42,4.19l-.8-.42c-.14-.77-.3-1.54-.41-2.31a22.88,22.88,0,0,1-.33-3.36,15.42,15.42,0,0,1,.52-3,38,38,0,0,1,1.24-4.21c.3-.78.85-1.9,1.4-2a4.9,4.9,0,0,1,3.14.69c.41.25.55,1.63.25,2.2-1,2-1.1,3.56.77,5.21C275.49,210.15,275.24,212.16,274.66,212.74Z" transform="translate(-92.94 -2.62)" fill="#a379c9" opacity="0.4" style="isolation: isolate;"></path><g id="_7" data-name="7"><rect x="210.94" y="208" width="6.08" height="126.93" fill="#a379c9"></rect><rect x="210.94" y="208" width="6.08" height="126.93" fill="url(#linear-gradient)"></rect><polygon points="209.61 216.82 193.53 241.88 198.94 241.88 213.99 220.19 209.61 216.82" fill="#a379c9"></polygon><polygon points="218.36 216.82 232.99 237.5 228.12 239.77 213.99 220.19 218.36 216.82" fill="#a379c9"></polygon><polygon points="209.61 216.82 193.53 241.88 198.94 241.88 213.99 220.19 209.61 216.82" fill="url(#linear-gradient-2)"></polygon><polygon points="218.36 216.82 232.99 237.5 228.12 239.77 213.99 220.19 218.36 216.82" fill="url(#linear-gradient-3)"></polygon><rect x="209.32" y="206.19" width="9.33" height="15.46" fill="#a379c9"></rect><rect x="209.32" y="206.19" width="9.33" height="15.46" fill="url(#linear-gradient-4)"></rect><polygon points="204.97 334.93 204.11 285.3 204 278.12 203.97 276.61 223.3 276.61 223.3 334.93 204.97 334.93" fill="#a379c9"></polygon><polygon points="204.97 334.93 204.11 285.3 204 278.12 203.97 276.61 223.3 276.61 223.3 334.93 204.97 334.93" fill="url(#linear-gradient-5)"></polygon><rect x="202.86" y="275.52" width="21.72" height="7.18" fill="#a379c9"></rect><rect x="202.86" y="275.52" width="21.72" height="7.18" fill="url(#linear-gradient-6)"></rect><polygon points="196.75 276.61 213.99 267.24 231.21 276.61 196.75 276.61" fill="#a379c9"></polygon><polygon points="196.75 276.61 213.99 267.24 231.21 276.61 196.75 276.61" fill="url(#linear-gradient-7)"></polygon><rect x="95.7" y="208" width="6.08" height="126.93" fill="#a379c9"></rect><rect x="95.7" y="208" width="6.08" height="126.93" fill="url(#linear-gradient-8)"></rect><polygon points="103.11 216.82 119.19 241.88 113.78 241.88 98.73 220.19 103.11 216.82" fill="#a379c9"></polygon><polygon points="94.36 216.82 79.73 237.5 84.6 239.77 98.73 220.19 94.36 216.82" fill="#a379c9"></polygon><polygon points="103.11 216.82 119.19 241.88 113.78 241.88 98.73 220.19 103.11 216.82" fill="url(#linear-gradient-9)"></polygon><polygon points="94.36 216.82 79.73 237.5 84.6 239.77 98.73 220.19 94.36 216.82" fill="url(#linear-gradient-10)"></polygon><rect x="94.07" y="206.19" width="9.33" height="15.46" fill="#a379c9"></rect><rect x="94.07" y="206.19" width="9.33" height="15.46" fill="url(#linear-gradient-11)"></rect><polygon points="107.75 334.93 108.61 285.3 108.72 278.12 108.75 276.61 89.42 276.61 89.42 334.93 107.75 334.93" fill="#a379c9"></polygon><polygon points="107.75 334.93 108.61 285.3 108.72 278.12 108.75 276.61 89.42 276.61 89.42 334.93 107.75 334.93" fill="url(#linear-gradient-12)"></polygon><rect x="181.07" y="278.15" width="21.72" height="7.18" transform="translate(290.93 560.85) rotate(180)" fill="#a379c9"></rect><rect x="181.07" y="278.15" width="21.72" height="7.18" transform="translate(290.93 560.85) rotate(180)" fill="url(#linear-gradient-13)"></rect><polygon points="115.97 276.61 98.73 267.24 81.5 276.61 115.97 276.61" fill="#a379c9"></polygon><polygon points="115.97 276.61 98.73 267.24 81.5 276.61 115.97 276.61" fill="url(#linear-gradient-14)"></polygon><path d="M187,208.82h9.32v9.82l-1.62-.39c-2-.5-4-1-6.08-1.58-.54-.13-1.08-.28-1.62-.44Z" transform="translate(-92.94 -2.62)" fill="url(#linear-gradient-15)"></path><path d="M328.39,189.22q-.64,5.47-1.24,10.55c-.32,2.74-.63,5.39-.95,8C298.45,217,273.1,221.21,249,221.21s-49.43-4.25-77.18-13.47l-.93-8c-.41-3.38-.82-6.9-1.25-10.55,28.6,10.49,54.66,15.31,79.36,15.31S299.78,199.71,328.39,189.22Z" transform="translate(-92.94 -2.62)" fill="#a379c9"></path><path d="M328.39,186.32q-.64,5.48-1.24,10.55c-.32,2.74-.63,5.39-.95,8-27.75,9.22-53.1,13.47-77.16,13.47s-49.43-4.25-77.18-13.47l-.93-8c-.41-3.38-.82-6.9-1.25-10.55,28.6,10.48,54.66,15.3,79.36,15.3S299.78,196.8,328.39,186.32Z" transform="translate(-92.94 -2.62)" fill="url(#linear-gradient-16)"></path><path d="M348.83,188.37a294.61,294.61,0,0,1-99.8,17.4,294.56,294.56,0,0,1-99.79-17.4l1.48-4.11c1.56-4.32,3.1-8.64,4.66-13A276.37,276.37,0,0,0,249,187.64a276.32,276.32,0,0,0,93.65-16.34l4.67,13C347.84,185.63,348.33,187,348.83,188.37Z" transform="translate(-92.94 -2.62)" fill="#a379c9"></path><path d="M347.35,184.26A294.29,294.29,0,0,1,249,201.15a294.27,294.27,0,0,1-98.31-16.89c1.56-4.32,3.1-8.64,4.66-13A276.37,276.37,0,0,0,249,187.64a276.32,276.32,0,0,0,93.65-16.34Z" transform="translate(-92.94 -2.62)" fill="#a379c9"></path><path d="M347.35,184.26A294.29,294.29,0,0,1,249,201.15a294.27,294.27,0,0,1-98.31-16.89c1.56-4.32,3.1-8.64,4.66-13A276.37,276.37,0,0,0,249,187.64a276.32,276.32,0,0,0,93.65-16.34Z" transform="translate(-92.94 -2.62)" fill="url(#linear-gradient-17)"></path><path d="M353.72,153.1s-.06,2.67-.51,6.25a52.66,52.66,0,0,1-1.56,7.88,27.93,27.93,0,0,1-1.46,4.07c-35.82,12.9-63.65,18.21-101.15,18.21S183.7,184.2,147.88,171.3c-.27-1.09-.57-2.43-.87-3.89-.52-2.5-1.06-5.36-1.53-7.86-.65-3.61-1.13-6.45-1.13-6.45S197.61,171.3,249,171.37C308.46,169.12,353.72,153.1,353.72,153.1Z" transform="translate(-92.94 -2.62)" fill="#a379c9"></path><path d="M353.72,153.1s-.06,2.67-.51,6.25a52.66,52.66,0,0,1-1.56,7.88,27.93,27.93,0,0,1-1.46,4.07c-35.82,12.9-63.65,18.21-101.15,18.21S183.7,184.2,147.88,171.3c-.27-1.09-.57-2.43-.87-3.89-.52-2.5-1.06-5.36-1.53-7.86-.65-3.61-1.13-6.45-1.13-6.45S197.61,171.3,249,171.37C308.46,169.12,353.72,153.1,353.72,153.1Z" transform="translate(-92.94 -2.62)" fill="url(#linear-gradient-18)"></path><path d="M351.65,167.23a27.93,27.93,0,0,1-1.46,4.07c-35.82,12.9-63.65,18.21-101.15,18.21S183.7,184.2,147.88,171.3c-.27-1.09-.57-2.43-.87-3.89,11.37,3.63,57.39,17.35,102,17.41C301,182.85,342.18,170.34,351.65,167.23Z" transform="translate(-92.94 -2.62)" fill="#a379c9"></path><path d="M333.79,250.4a773.59,773.59,0,0,1-169.52,0c.11-.93.21-1.85.32-2.77.32-3,.66-5.94,1-8.9a761.07,761.07,0,0,0,166.92,0c.33,3,.65,5.93,1,8.9C333.58,248.55,333.69,249.47,333.79,250.4Z" transform="translate(-92.94 -2.62)" fill="#a379c9"></path><path d="M333.79,250.4a773.59,773.59,0,0,1-169.52,0c.11-.93.21-1.85.32-2.77.32-3,.66-5.94,1-8.9a761.07,761.07,0,0,0,166.92,0c.33,3,.65,5.93,1,8.9C333.58,248.55,333.69,249.47,333.79,250.4Z" transform="translate(-92.94 -2.62)" fill="url(#linear-gradient-19)"></path><path d="M194.71,253.14v3.26c-2-.15-4.05-.3-6.08-.47v-3.17Z" transform="translate(-92.94 -2.62)" fill="url(#linear-gradient-20)"></path></g></svg>